<mxfile host="65bd71144e">
    <diagram id="Bz4yaCBwQLUwJJT0A78D" name="第 1 页">
        <mxGraphModel dx="1029" dy="790" grid="1" gridSize="10" guides="1" tooltips="1" connect="1" arrows="1" fold="1" page="1" pageScale="1" pageWidth="827" pageHeight="1169" math="0" shadow="0">
            <root>
                <mxCell id="0"/>
                <mxCell id="1" parent="0"/>
                <mxCell id="76" value="" style="edgeStyle=none;html=1;" edge="1" parent="1" source="77" target="86">
                    <mxGeometry relative="1" as="geometry"/>
                </mxCell>
                <mxCell id="77" value="&lt;pre style=&quot;margin-top: 0px; margin-bottom: 0px; overflow: auto; border-radius: 4px;&quot;&gt;&lt;pre style=&quot;font-size: 24px; font-weight: 700; margin-top: 0px; margin-bottom: 0px; overflow: auto; border-radius: 4px;&quot;&gt;&lt;font face=&quot;menlo, monaco, consolas, andale mono, lucida console, courier new, monospace&quot;&gt;&lt;span style=&quot;font-size: 21.6px ; font-weight: 400&quot;&gt;Node&lt;/span&gt;&lt;/font&gt;&lt;/pre&gt;&lt;/pre&gt;" style="rounded=0;whiteSpace=wrap;html=1;fillColor=#cdeb8b;strokeColor=#36393d;fontColor=#000000;" vertex="1" parent="1">
                    <mxGeometry x="390" y="200" width="120" height="60" as="geometry"/>
                </mxCell>
                <mxCell id="78" value="&lt;pre style=&quot;margin-top: 0px; margin-bottom: 0px; font-size: 0.9em; overflow: auto; background-image: initial; background-position: initial; background-size: initial; background-repeat: initial; background-attachment: initial; background-origin: initial; background-clip: initial; border-radius: 4px;&quot;&gt;&lt;pre style=&quot;font-size: 12px ; margin-top: 0px ; margin-bottom: 0px ; overflow: auto ; border-radius: 4px&quot;&gt;&lt;pre style=&quot;font-size: 24px; font-weight: 700; margin-top: 0px; margin-bottom: 0px; overflow: auto; border-radius: 4px;&quot;&gt;&lt;font face=&quot;menlo, monaco, consolas, andale mono, lucida console, courier new, monospace&quot;&gt;&lt;span style=&quot;font-size: 21.6px ; font-weight: 400&quot;&gt;Node&lt;/span&gt;&lt;/font&gt;&lt;/pre&gt;&lt;/pre&gt;&lt;/pre&gt;" style="rounded=0;whiteSpace=wrap;html=1;labelBackgroundColor=none;fillColor=#cdeb8b;strokeColor=#36393d;fontColor=#000000;" vertex="1" parent="1">
                    <mxGeometry x="390" y="260" width="120" height="60" as="geometry"/>
                </mxCell>
                <mxCell id="79" value="&lt;pre style=&quot;margin-top: 0px; margin-bottom: 0px; font-size: 0.9em; overflow: auto; background-image: initial; background-position: initial; background-size: initial; background-repeat: initial; background-attachment: initial; background-origin: initial; background-clip: initial; border-radius: 4px;&quot;&gt;&lt;pre style=&quot;font-size: 12px ; margin-top: 0px ; margin-bottom: 0px ; overflow: auto ; border-radius: 4px&quot;&gt;&lt;pre style=&quot;font-size: 24px; font-weight: 700; margin-top: 0px; margin-bottom: 0px; overflow: auto; border-radius: 4px;&quot;&gt;&lt;font face=&quot;menlo, monaco, consolas, andale mono, lucida console, courier new, monospace&quot;&gt;&lt;span style=&quot;font-size: 21.6px ; font-weight: 400&quot;&gt;Node&lt;/span&gt;&lt;/font&gt;&lt;/pre&gt;&lt;/pre&gt;&lt;/pre&gt;" style="rounded=0;whiteSpace=wrap;html=1;labelBackgroundColor=none;fillColor=#cdeb8b;strokeColor=#36393d;fontColor=#000000;" vertex="1" parent="1">
                    <mxGeometry x="390" y="320" width="120" height="60" as="geometry"/>
                </mxCell>
                <mxCell id="80" value="" style="edgeStyle=none;html=1;" edge="1" parent="1" source="81" target="88">
                    <mxGeometry relative="1" as="geometry"/>
                </mxCell>
                <mxCell id="81" value="&lt;pre style=&quot;margin-top: 0px; margin-bottom: 0px; font-size: 0.9em; overflow: auto; background-image: initial; background-position: initial; background-size: initial; background-repeat: initial; background-attachment: initial; background-origin: initial; background-clip: initial; border-radius: 4px;&quot;&gt;&lt;pre style=&quot;font-size: 12px ; margin-top: 0px ; margin-bottom: 0px ; overflow: auto ; border-radius: 4px&quot;&gt;&lt;pre style=&quot;font-size: 24px; font-weight: 700; margin-top: 0px; margin-bottom: 0px; overflow: auto; border-radius: 4px;&quot;&gt;&lt;font face=&quot;menlo, monaco, consolas, andale mono, lucida console, courier new, monospace&quot;&gt;&lt;span style=&quot;font-size: 21.6px ; font-weight: 400&quot;&gt;Node&lt;/span&gt;&lt;/font&gt;&lt;/pre&gt;&lt;/pre&gt;&lt;/pre&gt;" style="rounded=0;whiteSpace=wrap;html=1;labelBackgroundColor=none;fillColor=#cdeb8b;strokeColor=#36393d;fontColor=#000000;" vertex="1" parent="1">
                    <mxGeometry x="390" y="380" width="120" height="60" as="geometry"/>
                </mxCell>
                <mxCell id="82" value="&lt;pre style=&quot;margin-top: 0px; margin-bottom: 0px; font-size: 0.9em; overflow: auto; background-image: initial; background-position: initial; background-size: initial; background-repeat: initial; background-attachment: initial; background-origin: initial; background-clip: initial; border-radius: 4px; color: rgb(18, 18, 18);&quot;&gt;&lt;pre style=&quot;font-size: 12px ; margin-top: 0px ; margin-bottom: 0px ; overflow: auto ; border-radius: 4px&quot;&gt;&lt;pre style=&quot;color: rgb(240 , 240 , 240) ; font-size: 24px ; font-weight: 700 ; margin-top: 0px ; margin-bottom: 0px ; overflow: auto ; border-radius: 4px&quot;&gt;&lt;font color=&quot;#d7ba7d&quot; face=&quot;menlo, monaco, consolas, andale mono, lucida console, courier new, monospace&quot;&gt;&lt;span style=&quot;font-size: 21.6px ; font-weight: 400&quot;&gt;Node&lt;/span&gt;&lt;/font&gt;&lt;/pre&gt;&lt;/pre&gt;&lt;/pre&gt;" style="rounded=0;whiteSpace=wrap;html=1;labelBackgroundColor=default;" vertex="1" parent="1">
                    <mxGeometry x="390" y="440" width="120" height="60" as="geometry"/>
                </mxCell>
                <mxCell id="83" value="&lt;pre style=&quot;margin-top: 0px; margin-bottom: 0px; font-size: 0.9em; overflow: auto; background-image: initial; background-position: initial; background-size: initial; background-repeat: initial; background-attachment: initial; background-origin: initial; background-clip: initial; border-radius: 4px; color: rgb(18, 18, 18);&quot;&gt;&lt;pre style=&quot;font-size: 12px ; margin-top: 0px ; margin-bottom: 0px ; overflow: auto ; border-radius: 4px&quot;&gt;&lt;pre style=&quot;color: rgb(240 , 240 , 240) ; font-size: 24px ; font-weight: 700 ; margin-top: 0px ; margin-bottom: 0px ; overflow: auto ; border-radius: 4px&quot;&gt;&lt;font color=&quot;#d7ba7d&quot; face=&quot;menlo, monaco, consolas, andale mono, lucida console, courier new, monospace&quot;&gt;&lt;span style=&quot;font-size: 21.6px ; font-weight: 400&quot;&gt;Node&lt;/span&gt;&lt;/font&gt;&lt;/pre&gt;&lt;/pre&gt;&lt;/pre&gt;" style="rounded=0;whiteSpace=wrap;html=1;labelBackgroundColor=default;" vertex="1" parent="1">
                    <mxGeometry x="390" y="500" width="120" height="60" as="geometry"/>
                </mxCell>
                <mxCell id="84" value="" style="shape=curlyBracket;whiteSpace=wrap;html=1;rounded=1;" vertex="1" parent="1">
                    <mxGeometry x="350" y="200" width="20" height="600" as="geometry"/>
                </mxCell>
                <mxCell id="85" value="&lt;pre style=&quot;margin-top: 0px; margin-bottom: 0px; overflow: auto; background-image: initial; background-position: initial; background-size: initial; background-repeat: initial; background-attachment: initial; background-origin: initial; background-clip: initial; border-radius: 4px;&quot;&gt;&lt;font face=&quot;menlo, monaco, consolas, andale mono, lucida console, courier new, monospace&quot;&gt;&lt;span style=&quot;font-size: 21.6px ; font-weight: 400&quot;&gt;Node&amp;lt;K,V&amp;gt;[] table;数组桶&lt;/span&gt;&lt;/font&gt;&lt;font&gt;&lt;span style=&quot;font-size: 0.9em ; font-weight: 400&quot;&gt;&lt;br&gt;&lt;/span&gt;&lt;/font&gt;&lt;/pre&gt;" style="text;fillColor=none;html=1;fontSize=24;fontStyle=1;verticalAlign=middle;align=center;labelBackgroundColor=default;fontColor=#000000;" vertex="1" parent="1">
                    <mxGeometry x="61" y="477" width="284" height="40" as="geometry"/>
                </mxCell>
                <mxCell id="86" value="&lt;pre style=&quot;margin-top: 0px; margin-bottom: 0px; overflow: auto; background-image: initial; background-position: initial; background-size: initial; background-repeat: initial; background-attachment: initial; background-origin: initial; background-clip: initial; border-radius: 4px;&quot;&gt;&lt;pre style=&quot;font-size: 24px; font-weight: 700; margin-top: 0px; margin-bottom: 0px; overflow: auto; border-radius: 4px;&quot;&gt;&lt;font face=&quot;menlo, monaco, consolas, andale mono, lucida console, courier new, monospace&quot;&gt;&lt;span style=&quot;font-size: 21.6px ; font-weight: 400&quot;&gt;Node&lt;/span&gt;&lt;/font&gt;&lt;/pre&gt;&lt;/pre&gt;" style="rounded=0;whiteSpace=wrap;html=1;labelBackgroundColor=none;fillColor=#cdeb8b;strokeColor=#36393d;fontColor=#000000;" vertex="1" parent="1">
                    <mxGeometry x="560" y="200" width="120" height="60" as="geometry"/>
                </mxCell>
                <mxCell id="87" value="" style="edgeStyle=none;html=1;" edge="1" parent="1" source="88" target="90">
                    <mxGeometry relative="1" as="geometry"/>
                </mxCell>
                <mxCell id="88" value="&lt;pre style=&quot;margin-top: 0px; margin-bottom: 0px; font-size: 0.9em; overflow: auto; background-image: initial; background-position: initial; background-size: initial; background-repeat: initial; background-attachment: initial; background-origin: initial; background-clip: initial; border-radius: 4px; color: rgb(18, 18, 18);&quot;&gt;&lt;pre style=&quot;font-size: 12px ; margin-top: 0px ; margin-bottom: 0px ; overflow: auto ; border-radius: 4px&quot;&gt;&lt;pre style=&quot;color: rgb(240 , 240 , 240) ; font-size: 24px ; font-weight: 700 ; margin-top: 0px ; margin-bottom: 0px ; overflow: auto ; border-radius: 4px&quot;&gt;&lt;font color=&quot;#d7ba7d&quot; face=&quot;menlo, monaco, consolas, andale mono, lucida console, courier new, monospace&quot;&gt;&lt;span style=&quot;font-size: 21.6px ; font-weight: 400&quot;&gt;Node&lt;/span&gt;&lt;/font&gt;&lt;/pre&gt;&lt;/pre&gt;&lt;/pre&gt;" style="rounded=0;whiteSpace=wrap;html=1;labelBackgroundColor=default;" vertex="1" parent="1">
                    <mxGeometry x="530" y="380" width="120" height="60" as="geometry"/>
                </mxCell>
                <mxCell id="89" value="" style="edgeStyle=none;html=1;" edge="1" parent="1" source="90" target="91">
                    <mxGeometry relative="1" as="geometry"/>
                </mxCell>
                <mxCell id="90" value="&lt;pre style=&quot;margin-top: 0px; margin-bottom: 0px; font-size: 0.9em; overflow: auto; background-image: initial; background-position: initial; background-size: initial; background-repeat: initial; background-attachment: initial; background-origin: initial; background-clip: initial; border-radius: 4px; color: rgb(18, 18, 18);&quot;&gt;&lt;pre style=&quot;font-size: 12px ; margin-top: 0px ; margin-bottom: 0px ; overflow: auto ; border-radius: 4px&quot;&gt;&lt;pre style=&quot;color: rgb(240 , 240 , 240) ; font-size: 24px ; font-weight: 700 ; margin-top: 0px ; margin-bottom: 0px ; overflow: auto ; border-radius: 4px&quot;&gt;&lt;font color=&quot;#d7ba7d&quot; face=&quot;menlo, monaco, consolas, andale mono, lucida console, courier new, monospace&quot;&gt;&lt;span style=&quot;font-size: 21.6px ; font-weight: 400&quot;&gt;Node&lt;/span&gt;&lt;/font&gt;&lt;/pre&gt;&lt;/pre&gt;&lt;/pre&gt;" style="rounded=0;whiteSpace=wrap;html=1;labelBackgroundColor=default;" vertex="1" parent="1">
                    <mxGeometry x="670" y="380" width="120" height="60" as="geometry"/>
                </mxCell>
                <mxCell id="91" value="&lt;pre style=&quot;margin-top: 0px; margin-bottom: 0px; font-size: 0.9em; overflow: auto; background-image: initial; background-position: initial; background-size: initial; background-repeat: initial; background-attachment: initial; background-origin: initial; background-clip: initial; border-radius: 4px;&quot;&gt;&lt;pre style=&quot;font-size: 12px ; margin-top: 0px ; margin-bottom: 0px ; overflow: auto ; border-radius: 4px&quot;&gt;&lt;pre style=&quot;font-size: 24px; font-weight: 700; margin-top: 0px; margin-bottom: 0px; overflow: auto; border-radius: 4px;&quot;&gt;&lt;font face=&quot;menlo, monaco, consolas, andale mono, lucida console, courier new, monospace&quot;&gt;&lt;span style=&quot;font-size: 21.6px ; font-weight: 400&quot;&gt;Node&lt;/span&gt;&lt;/font&gt;&lt;/pre&gt;&lt;/pre&gt;&lt;/pre&gt;" style="rounded=0;whiteSpace=wrap;html=1;labelBackgroundColor=none;fillColor=#cdeb8b;strokeColor=#36393d;fontColor=#000000;" vertex="1" parent="1">
                    <mxGeometry x="810" y="380" width="120" height="60" as="geometry"/>
                </mxCell>
                <mxCell id="92" value="" style="shape=curlyBracket;whiteSpace=wrap;html=1;rounded=1;flipH=1;direction=north;" vertex="1" parent="1">
                    <mxGeometry x="520" y="460" width="410" height="20" as="geometry"/>
                </mxCell>
                <mxCell id="93" value="&lt;pre style=&quot;margin-top: 0px; margin-bottom: 0px; overflow: auto; background-image: initial; background-position: initial; background-size: initial; background-repeat: initial; background-attachment: initial; background-origin: initial; background-clip: initial; border-radius: 4px;&quot;&gt;&lt;font face=&quot;menlo, monaco, consolas, andale mono, lucida console, courier new, monospace&quot;&gt;&lt;span style=&quot;font-size: 21.6px ; font-weight: 400&quot;&gt;链表&lt;/span&gt;&lt;/font&gt;&lt;font&gt;&lt;span style=&quot;font-size: 0.9em ; font-weight: 400&quot;&gt;&lt;br&gt;&lt;/span&gt;&lt;/font&gt;&lt;/pre&gt;" style="text;strokeColor=none;fillColor=none;html=1;fontSize=24;fontStyle=1;verticalAlign=middle;align=center;labelBackgroundColor=default;fontColor=#000000;" vertex="1" parent="1">
                    <mxGeometry x="675" y="490" width="100" height="40" as="geometry"/>
                </mxCell>
                <mxCell id="94" value="基于JDK1.8的HashMap" style="text;html=1;strokeColor=#6F0000;fillColor=#a20025;align=center;verticalAlign=middle;whiteSpace=wrap;rounded=0;fontColor=#ffffff;fontSize=17;fontStyle=1" vertex="1" parent="1">
                    <mxGeometry x="910" y="150" width="220" height="60" as="geometry"/>
                </mxCell>
                <mxCell id="95" value="&lt;pre style=&quot;margin-top: 0px; margin-bottom: 0px; font-size: 0.9em; overflow: auto; background-image: initial; background-position: initial; background-size: initial; background-repeat: initial; background-attachment: initial; background-origin: initial; background-clip: initial; border-radius: 4px; color: rgb(18, 18, 18);&quot;&gt;&lt;pre style=&quot;font-size: 12px ; margin-top: 0px ; margin-bottom: 0px ; overflow: auto ; border-radius: 4px&quot;&gt;&lt;pre style=&quot;color: rgb(240 , 240 , 240) ; font-size: 24px ; font-weight: 700 ; margin-top: 0px ; margin-bottom: 0px ; overflow: auto ; border-radius: 4px&quot;&gt;&lt;font color=&quot;#d7ba7d&quot; face=&quot;menlo, monaco, consolas, andale mono, lucida console, courier new, monospace&quot;&gt;&lt;span style=&quot;font-size: 21.6px ; font-weight: 400&quot;&gt;Node&lt;/span&gt;&lt;/font&gt;&lt;/pre&gt;&lt;/pre&gt;&lt;/pre&gt;" style="rounded=0;whiteSpace=wrap;html=1;labelBackgroundColor=default;" vertex="1" parent="1">
                    <mxGeometry x="390" y="560" width="120" height="60" as="geometry"/>
                </mxCell>
                <mxCell id="96" value="&lt;pre style=&quot;margin-top: 0px; margin-bottom: 0px; font-size: 0.9em; overflow: auto; background-image: initial; background-position: initial; background-size: initial; background-repeat: initial; background-attachment: initial; background-origin: initial; background-clip: initial; border-radius: 4px; color: rgb(18, 18, 18);&quot;&gt;&lt;pre style=&quot;font-size: 12px ; margin-top: 0px ; margin-bottom: 0px ; overflow: auto ; border-radius: 4px&quot;&gt;&lt;pre style=&quot;color: rgb(240 , 240 , 240) ; font-size: 24px ; font-weight: 700 ; margin-top: 0px ; margin-bottom: 0px ; overflow: auto ; border-radius: 4px&quot;&gt;&lt;font color=&quot;#d7ba7d&quot; face=&quot;menlo, monaco, consolas, andale mono, lucida console, courier new, monospace&quot;&gt;&lt;span style=&quot;font-size: 21.6px ; font-weight: 400&quot;&gt;Node&lt;/span&gt;&lt;/font&gt;&lt;/pre&gt;&lt;/pre&gt;&lt;/pre&gt;" style="rounded=0;whiteSpace=wrap;html=1;labelBackgroundColor=default;" vertex="1" parent="1">
                    <mxGeometry x="390" y="620" width="120" height="60" as="geometry"/>
                </mxCell>
                <mxCell id="97" value="&lt;pre style=&quot;margin-top: 0px; margin-bottom: 0px; font-size: 0.9em; overflow: auto; background-image: initial; background-position: initial; background-size: initial; background-repeat: initial; background-attachment: initial; background-origin: initial; background-clip: initial; border-radius: 4px;&quot;&gt;&lt;pre style=&quot;font-size: 12px ; margin-top: 0px ; margin-bottom: 0px ; overflow: auto ; border-radius: 4px&quot;&gt;&lt;pre style=&quot;font-size: 24px; font-weight: 700; margin-top: 0px; margin-bottom: 0px; overflow: auto; border-radius: 4px;&quot;&gt;&lt;font face=&quot;menlo, monaco, consolas, andale mono, lucida console, courier new, monospace&quot;&gt;&lt;span style=&quot;font-size: 21.6px ; font-weight: 400&quot;&gt;Node&lt;/span&gt;&lt;/font&gt;&lt;/pre&gt;&lt;/pre&gt;&lt;/pre&gt;" style="rounded=0;whiteSpace=wrap;html=1;labelBackgroundColor=none;fillColor=#cdeb8b;strokeColor=#36393d;fontColor=#000000;" vertex="1" parent="1">
                    <mxGeometry x="390" y="680" width="120" height="60" as="geometry"/>
                </mxCell>
                <mxCell id="98" value="&lt;pre style=&quot;margin-top: 0px ; margin-bottom: 0px ; font-size: 0.9em ; overflow: auto ; background: rgb(246 , 246 , 246) ; border-radius: 4px ; color: rgb(18 , 18 , 18)&quot;&gt;&lt;pre style=&quot;font-size: 12px ; margin-top: 0px ; margin-bottom: 0px ; overflow: auto ; border-radius: 4px&quot;&gt;&lt;pre style=&quot;color: rgb(240 , 240 , 240) ; font-size: 24px ; font-weight: 700 ; margin-top: 0px ; margin-bottom: 0px ; overflow: auto ; border-radius: 4px&quot;&gt;&lt;font color=&quot;#d7ba7d&quot; face=&quot;menlo, monaco, consolas, andale mono, lucida console, courier new, monospace&quot;&gt;&lt;span style=&quot;font-size: 21.6px ; font-weight: 400&quot;&gt;Node&lt;/span&gt;&lt;/font&gt;&lt;/pre&gt;&lt;/pre&gt;&lt;/pre&gt;" style="rounded=0;whiteSpace=wrap;html=1;fillColor=none;" vertex="1" parent="1">
                    <mxGeometry x="390" y="740" width="120" height="60" as="geometry"/>
                </mxCell>
                <mxCell id="99" style="edgeStyle=none;html=1;exitX=1;exitY=0.5;exitDx=0;exitDy=0;entryX=0;entryY=0.5;entryDx=0;entryDy=0;fontSize=17;" edge="1" parent="1" source="101" target="104">
                    <mxGeometry relative="1" as="geometry"/>
                </mxCell>
                <mxCell id="100" style="edgeStyle=none;html=1;exitX=1;exitY=0.5;exitDx=0;exitDy=0;entryX=0;entryY=0.5;entryDx=0;entryDy=0;fontSize=17;" edge="1" parent="1" source="101" target="107">
                    <mxGeometry relative="1" as="geometry"/>
                </mxCell>
                <mxCell id="101" value="TreeNode" style="ellipse;whiteSpace=wrap;html=1;aspect=fixed;fontSize=12;fillColor=#000000;fontColor=#FFFF66;" vertex="1" parent="1">
                    <mxGeometry x="424" y="740" width="60" height="60" as="geometry"/>
                </mxCell>
                <mxCell id="102" style="edgeStyle=none;html=1;exitX=1;exitY=0.5;exitDx=0;exitDy=0;entryX=0;entryY=0.5;entryDx=0;entryDy=0;fontSize=17;" edge="1" parent="1" source="104" target="108">
                    <mxGeometry relative="1" as="geometry"/>
                </mxCell>
                <mxCell id="103" style="edgeStyle=none;html=1;exitX=1;exitY=0.5;exitDx=0;exitDy=0;entryX=0;entryY=0.5;entryDx=0;entryDy=0;fontSize=17;" edge="1" parent="1" source="104" target="110">
                    <mxGeometry relative="1" as="geometry"/>
                </mxCell>
                <mxCell id="104" value="&lt;span style=&quot;font-size: 12px;&quot;&gt;TreeNode&lt;/span&gt;" style="ellipse;whiteSpace=wrap;html=1;aspect=fixed;fontSize=17;fillColor=#a20025;fontColor=#FFFF66;strokeColor=#6F0000;" vertex="1" parent="1">
                    <mxGeometry x="560" y="660" width="60" height="60" as="geometry"/>
                </mxCell>
                <mxCell id="105" style="edgeStyle=none;html=1;exitX=1;exitY=0.5;exitDx=0;exitDy=0;entryX=0;entryY=0.5;entryDx=0;entryDy=0;fontSize=17;" edge="1" parent="1" source="107" target="109">
                    <mxGeometry relative="1" as="geometry"/>
                </mxCell>
                <mxCell id="106" style="edgeStyle=none;html=1;exitX=1;exitY=0.5;exitDx=0;exitDy=0;entryX=0;entryY=0.5;entryDx=0;entryDy=0;fontSize=17;" edge="1" parent="1" source="107" target="112">
                    <mxGeometry relative="1" as="geometry"/>
                </mxCell>
                <mxCell id="107" value="&lt;span style=&quot;font-size: 12px;&quot;&gt;TreeNode&lt;/span&gt;" style="ellipse;whiteSpace=wrap;html=1;aspect=fixed;fontSize=17;fillColor=#a20025;fontColor=#FFFF66;strokeColor=#6F0000;" vertex="1" parent="1">
                    <mxGeometry x="560" y="820" width="60" height="60" as="geometry"/>
                </mxCell>
                <mxCell id="108" value="&lt;span style=&quot;font-size: 12px&quot;&gt;TreeNode&lt;/span&gt;" style="ellipse;whiteSpace=wrap;html=1;aspect=fixed;fontSize=17;fillColor=#000000;fontColor=#FFFF66;" vertex="1" parent="1">
                    <mxGeometry x="670" y="620" width="60" height="60" as="geometry"/>
                </mxCell>
                <mxCell id="109" value="&lt;span style=&quot;font-size: 12px&quot;&gt;TreeNode&lt;/span&gt;" style="ellipse;whiteSpace=wrap;html=1;aspect=fixed;fontSize=17;fillColor=#000000;fontColor=#FFFF66;" vertex="1" parent="1">
                    <mxGeometry x="670" y="790" width="60" height="60" as="geometry"/>
                </mxCell>
                <mxCell id="110" value="&lt;span style=&quot;font-size: 12px&quot;&gt;TreeNode&lt;/span&gt;" style="ellipse;whiteSpace=wrap;html=1;aspect=fixed;fontSize=17;fillColor=#000000;fontColor=#FFFF66;" vertex="1" parent="1">
                    <mxGeometry x="670" y="690" width="60" height="60" as="geometry"/>
                </mxCell>
                <mxCell id="111" value="" style="edgeStyle=none;html=1;fontSize=17;" edge="1" parent="1" source="112" target="113">
                    <mxGeometry relative="1" as="geometry"/>
                </mxCell>
                <mxCell id="112" value="&lt;span style=&quot;font-size: 12px&quot;&gt;TreeNode&lt;/span&gt;" style="ellipse;whiteSpace=wrap;html=1;aspect=fixed;fontSize=17;fillColor=#000000;fontColor=#FFFF66;" vertex="1" parent="1">
                    <mxGeometry x="670" y="860" width="60" height="60" as="geometry"/>
                </mxCell>
                <mxCell id="113" value="&lt;span style=&quot;font-size: 12px;&quot;&gt;TreeNode&lt;/span&gt;" style="ellipse;whiteSpace=wrap;html=1;aspect=fixed;fontSize=17;fillColor=#a20025;fontColor=#FFFF66;strokeColor=#6F0000;" vertex="1" parent="1">
                    <mxGeometry x="780" y="860" width="60" height="60" as="geometry"/>
                </mxCell>
                <mxCell id="114" value="" style="shape=curlyBracket;whiteSpace=wrap;html=1;rounded=1;flipH=1;fontSize=12;fillColor=#000000;direction=east;" vertex="1" parent="1">
                    <mxGeometry x="852" y="616" width="20" height="300" as="geometry"/>
                </mxCell>
                <mxCell id="115" value="&lt;pre style=&quot;margin-top: 0px; margin-bottom: 0px; overflow: auto; background-image: initial; background-position: initial; background-size: initial; background-repeat: initial; background-attachment: initial; background-origin: initial; background-clip: initial; border-radius: 4px;&quot;&gt;&lt;font face=&quot;menlo, monaco, consolas, andale mono, lucida console, courier new, monospace&quot;&gt;&lt;span style=&quot;font-size: 21.6px ; font-weight: 400&quot;&gt;红黑树，当插入元素时桶的长度&amp;gt;=64，&lt;br&gt;链表的长度&amp;gt;8的时候会转换成红黑树，&lt;br&gt;当链表长度&amp;lt;6的时候会红黑树退化成链表&lt;/span&gt;&lt;/font&gt;&lt;br&gt;&lt;/pre&gt;" style="text;strokeColor=none;fillColor=none;html=1;fontSize=24;fontStyle=1;verticalAlign=middle;align=center;labelBackgroundColor=default;fontColor=#000000;" vertex="1" parent="1">
                    <mxGeometry x="872" y="711" width="426" height="110" as="geometry"/>
                </mxCell>
                <mxCell id="116" value="&lt;pre style=&quot;margin-top: 0px; margin-bottom: 0px; font-size: 0.9em; overflow: auto; background-image: initial; background-position: initial; background-size: initial; background-repeat: initial; background-attachment: initial; background-origin: initial; background-clip: initial; border-radius: 4px; color: rgb(18, 18, 18);&quot;&gt;&lt;pre style=&quot;font-size: 12px ; margin-top: 0px ; margin-bottom: 0px ; overflow: auto ; border-radius: 4px&quot;&gt;&lt;pre style=&quot;color: rgb(240 , 240 , 240) ; font-size: 24px ; font-weight: 700 ; margin-top: 0px ; margin-bottom: 0px ; overflow: auto ; border-radius: 4px&quot;&gt;&lt;font color=&quot;#d7ba7d&quot; face=&quot;menlo, monaco, consolas, andale mono, lucida console, courier new, monospace&quot;&gt;&lt;span style=&quot;font-size: 21.6px ; font-weight: 400&quot;&gt;Node&lt;/span&gt;&lt;/font&gt;&lt;/pre&gt;&lt;/pre&gt;&lt;/pre&gt;" style="rounded=0;whiteSpace=wrap;html=1;labelBackgroundColor=default;" vertex="1" parent="1">
                    <mxGeometry x="390" y="440" width="120" height="60" as="geometry"/>
                </mxCell>
                <mxCell id="117" value="&lt;pre style=&quot;margin-top: 0px; margin-bottom: 0px; font-size: 0.9em; overflow: auto; background-image: initial; background-position: initial; background-size: initial; background-repeat: initial; background-attachment: initial; background-origin: initial; background-clip: initial; border-radius: 4px; color: rgb(18, 18, 18);&quot;&gt;&lt;pre style=&quot;font-size: 12px ; margin-top: 0px ; margin-bottom: 0px ; overflow: auto ; border-radius: 4px&quot;&gt;&lt;pre style=&quot;color: rgb(240 , 240 , 240) ; font-size: 24px ; font-weight: 700 ; margin-top: 0px ; margin-bottom: 0px ; overflow: auto ; border-radius: 4px&quot;&gt;&lt;font color=&quot;#d7ba7d&quot; face=&quot;menlo, monaco, consolas, andale mono, lucida console, courier new, monospace&quot;&gt;&lt;span style=&quot;font-size: 21.6px ; font-weight: 400&quot;&gt;Node&lt;/span&gt;&lt;/font&gt;&lt;/pre&gt;&lt;/pre&gt;&lt;/pre&gt;" style="rounded=0;whiteSpace=wrap;html=1;labelBackgroundColor=default;" vertex="1" parent="1">
                    <mxGeometry x="390" y="500" width="120" height="60" as="geometry"/>
                </mxCell>
                <mxCell id="118" value="&lt;pre style=&quot;margin-top: 0px; margin-bottom: 0px; font-size: 0.9em; overflow: auto; background-image: initial; background-position: initial; background-size: initial; background-repeat: initial; background-attachment: initial; background-origin: initial; background-clip: initial; border-radius: 4px; color: rgb(18, 18, 18);&quot;&gt;&lt;pre style=&quot;font-size: 12px ; margin-top: 0px ; margin-bottom: 0px ; overflow: auto ; border-radius: 4px&quot;&gt;&lt;pre style=&quot;color: rgb(240 , 240 , 240) ; font-size: 24px ; font-weight: 700 ; margin-top: 0px ; margin-bottom: 0px ; overflow: auto ; border-radius: 4px&quot;&gt;&lt;font color=&quot;#d7ba7d&quot; face=&quot;menlo, monaco, consolas, andale mono, lucida console, courier new, monospace&quot;&gt;&lt;span style=&quot;font-size: 21.6px ; font-weight: 400&quot;&gt;Node&lt;/span&gt;&lt;/font&gt;&lt;/pre&gt;&lt;/pre&gt;&lt;/pre&gt;" style="rounded=0;whiteSpace=wrap;html=1;labelBackgroundColor=default;" vertex="1" parent="1">
                    <mxGeometry x="390" y="560" width="120" height="60" as="geometry"/>
                </mxCell>
                <mxCell id="119" value="&lt;pre style=&quot;margin-top: 0px; margin-bottom: 0px; font-size: 0.9em; overflow: auto; background-image: initial; background-position: initial; background-size: initial; background-repeat: initial; background-attachment: initial; background-origin: initial; background-clip: initial; border-radius: 4px; color: rgb(18, 18, 18);&quot;&gt;&lt;pre style=&quot;font-size: 12px ; margin-top: 0px ; margin-bottom: 0px ; overflow: auto ; border-radius: 4px&quot;&gt;&lt;pre style=&quot;color: rgb(240 , 240 , 240) ; font-size: 24px ; font-weight: 700 ; margin-top: 0px ; margin-bottom: 0px ; overflow: auto ; border-radius: 4px&quot;&gt;&lt;font color=&quot;#d7ba7d&quot; face=&quot;menlo, monaco, consolas, andale mono, lucida console, courier new, monospace&quot;&gt;&lt;span style=&quot;font-size: 21.6px ; font-weight: 400&quot;&gt;Node&lt;/span&gt;&lt;/font&gt;&lt;/pre&gt;&lt;/pre&gt;&lt;/pre&gt;" style="rounded=0;whiteSpace=wrap;html=1;labelBackgroundColor=default;" vertex="1" parent="1">
                    <mxGeometry x="390" y="620" width="120" height="60" as="geometry"/>
                </mxCell>
                <mxCell id="120" value="&lt;pre style=&quot;margin-top: 0px; margin-bottom: 0px; font-size: 0.9em; overflow: auto; background-image: initial; background-position: initial; background-size: initial; background-repeat: initial; background-attachment: initial; background-origin: initial; background-clip: initial; border-radius: 4px;&quot;&gt;&lt;pre style=&quot;font-size: 12px ; margin-top: 0px ; margin-bottom: 0px ; overflow: auto ; border-radius: 4px&quot;&gt;&lt;pre style=&quot;font-size: 24px; font-weight: 700; margin-top: 0px; margin-bottom: 0px; overflow: auto; border-radius: 4px;&quot;&gt;&lt;font face=&quot;menlo, monaco, consolas, andale mono, lucida console, courier new, monospace&quot;&gt;&lt;span style=&quot;font-size: 21.6px ; font-weight: 400&quot;&gt;Node&lt;/span&gt;&lt;/font&gt;&lt;/pre&gt;&lt;/pre&gt;&lt;/pre&gt;" style="rounded=0;whiteSpace=wrap;html=1;labelBackgroundColor=none;fillColor=#cdeb8b;strokeColor=#36393d;fontColor=#000000;" vertex="1" parent="1">
                    <mxGeometry x="390" y="440" width="120" height="60" as="geometry"/>
                </mxCell>
                <mxCell id="121" value="&lt;pre style=&quot;margin-top: 0px; margin-bottom: 0px; font-size: 0.9em; overflow: auto; background-image: initial; background-position: initial; background-size: initial; background-repeat: initial; background-attachment: initial; background-origin: initial; background-clip: initial; border-radius: 4px;&quot;&gt;&lt;pre style=&quot;font-size: 12px ; margin-top: 0px ; margin-bottom: 0px ; overflow: auto ; border-radius: 4px&quot;&gt;&lt;pre style=&quot;font-size: 24px; font-weight: 700; margin-top: 0px; margin-bottom: 0px; overflow: auto; border-radius: 4px;&quot;&gt;&lt;font face=&quot;menlo, monaco, consolas, andale mono, lucida console, courier new, monospace&quot;&gt;&lt;span style=&quot;font-size: 21.6px ; font-weight: 400&quot;&gt;Node&lt;/span&gt;&lt;/font&gt;&lt;/pre&gt;&lt;/pre&gt;&lt;/pre&gt;" style="rounded=0;whiteSpace=wrap;html=1;labelBackgroundColor=none;fillColor=#cdeb8b;strokeColor=#36393d;fontColor=#000000;" vertex="1" parent="1">
                    <mxGeometry x="390" y="500" width="120" height="60" as="geometry"/>
                </mxCell>
                <mxCell id="122" value="&lt;pre style=&quot;margin-top: 0px; margin-bottom: 0px; font-size: 0.9em; overflow: auto; background-image: initial; background-position: initial; background-size: initial; background-repeat: initial; background-attachment: initial; background-origin: initial; background-clip: initial; border-radius: 4px;&quot;&gt;&lt;pre style=&quot;font-size: 12px ; margin-top: 0px ; margin-bottom: 0px ; overflow: auto ; border-radius: 4px&quot;&gt;&lt;pre style=&quot;font-size: 24px; font-weight: 700; margin-top: 0px; margin-bottom: 0px; overflow: auto; border-radius: 4px;&quot;&gt;&lt;font face=&quot;menlo, monaco, consolas, andale mono, lucida console, courier new, monospace&quot;&gt;&lt;span style=&quot;font-size: 21.6px ; font-weight: 400&quot;&gt;Node&lt;/span&gt;&lt;/font&gt;&lt;/pre&gt;&lt;/pre&gt;&lt;/pre&gt;" style="rounded=0;whiteSpace=wrap;html=1;labelBackgroundColor=none;fillColor=#cdeb8b;strokeColor=#36393d;fontColor=#000000;" vertex="1" parent="1">
                    <mxGeometry x="390" y="560" width="120" height="60" as="geometry"/>
                </mxCell>
                <mxCell id="123" value="&lt;pre style=&quot;margin-top: 0px; margin-bottom: 0px; font-size: 0.9em; overflow: auto; background-image: initial; background-position: initial; background-size: initial; background-repeat: initial; background-attachment: initial; background-origin: initial; background-clip: initial; border-radius: 4px;&quot;&gt;&lt;pre style=&quot;font-size: 12px ; margin-top: 0px ; margin-bottom: 0px ; overflow: auto ; border-radius: 4px&quot;&gt;&lt;pre style=&quot;font-size: 24px; font-weight: 700; margin-top: 0px; margin-bottom: 0px; overflow: auto; border-radius: 4px;&quot;&gt;&lt;font face=&quot;menlo, monaco, consolas, andale mono, lucida console, courier new, monospace&quot;&gt;&lt;span style=&quot;font-size: 21.6px ; font-weight: 400&quot;&gt;Node&lt;/span&gt;&lt;/font&gt;&lt;/pre&gt;&lt;/pre&gt;&lt;/pre&gt;" style="rounded=0;whiteSpace=wrap;html=1;labelBackgroundColor=none;fillColor=#cdeb8b;strokeColor=#36393d;fontColor=#000000;" vertex="1" parent="1">
                    <mxGeometry x="390" y="620" width="120" height="60" as="geometry"/>
                </mxCell>
                <mxCell id="124" value="&lt;pre style=&quot;margin-top: 0px; margin-bottom: 0px; font-size: 0.9em; overflow: auto; background-image: initial; background-position: initial; background-size: initial; background-repeat: initial; background-attachment: initial; background-origin: initial; background-clip: initial; border-radius: 4px;&quot;&gt;&lt;pre style=&quot;font-size: 12px ; margin-top: 0px ; margin-bottom: 0px ; overflow: auto ; border-radius: 4px&quot;&gt;&lt;pre style=&quot;font-size: 24px; font-weight: 700; margin-top: 0px; margin-bottom: 0px; overflow: auto; border-radius: 4px;&quot;&gt;&lt;font face=&quot;menlo, monaco, consolas, andale mono, lucida console, courier new, monospace&quot;&gt;&lt;span style=&quot;font-size: 21.6px ; font-weight: 400&quot;&gt;Node&lt;/span&gt;&lt;/font&gt;&lt;/pre&gt;&lt;/pre&gt;&lt;/pre&gt;" style="rounded=0;whiteSpace=wrap;html=1;labelBackgroundColor=none;fillColor=#cdeb8b;strokeColor=#36393d;fontColor=#000000;" vertex="1" parent="1">
                    <mxGeometry x="530" y="380" width="120" height="60" as="geometry"/>
                </mxCell>
                <mxCell id="125" value="&lt;pre style=&quot;margin-top: 0px; margin-bottom: 0px; font-size: 0.9em; overflow: auto; background-image: initial; background-position: initial; background-size: initial; background-repeat: initial; background-attachment: initial; background-origin: initial; background-clip: initial; border-radius: 4px;&quot;&gt;&lt;pre style=&quot;font-size: 12px ; margin-top: 0px ; margin-bottom: 0px ; overflow: auto ; border-radius: 4px&quot;&gt;&lt;pre style=&quot;font-size: 24px; font-weight: 700; margin-top: 0px; margin-bottom: 0px; overflow: auto; border-radius: 4px;&quot;&gt;&lt;font face=&quot;menlo, monaco, consolas, andale mono, lucida console, courier new, monospace&quot;&gt;&lt;span style=&quot;font-size: 21.6px ; font-weight: 400&quot;&gt;Node&lt;/span&gt;&lt;/font&gt;&lt;/pre&gt;&lt;/pre&gt;&lt;/pre&gt;" style="rounded=0;whiteSpace=wrap;html=1;labelBackgroundColor=none;fillColor=#cdeb8b;strokeColor=#36393d;fontColor=#000000;" vertex="1" parent="1">
                    <mxGeometry x="670" y="380" width="120" height="60" as="geometry"/>
                </mxCell>
                <mxCell id="126" value="hash" style="rounded=1;whiteSpace=wrap;html=1;fillColor=#CDEB8B;fontColor=#000000;" vertex="1" parent="1">
                    <mxGeometry x="630" y="108" width="41" height="27" as="geometry"/>
                </mxCell>
                <mxCell id="127" value="key" style="rounded=1;whiteSpace=wrap;html=1;fillColor=#CDEB8B;gradientColor=none;fontColor=#000000;" vertex="1" parent="1">
                    <mxGeometry x="672" y="108" width="41" height="27" as="geometry"/>
                </mxCell>
                <mxCell id="128" value="value" style="rounded=1;whiteSpace=wrap;html=1;fillColor=#CDEB8B;fontColor=#000000;" vertex="1" parent="1">
                    <mxGeometry x="714" y="108" width="41" height="27" as="geometry"/>
                </mxCell>
                <mxCell id="129" value="next" style="rounded=1;whiteSpace=wrap;html=1;fillColor=#CDEB8B;fontColor=#000000;" vertex="1" parent="1">
                    <mxGeometry x="756" y="108" width="41" height="27" as="geometry"/>
                </mxCell>
                <mxCell id="130" value="" style="endArrow=none;html=1;entryX=0.5;entryY=1;entryDx=0;entryDy=0;exitX=0.5;exitY=0;exitDx=0;exitDy=0;" edge="1" parent="1" source="86" target="126">
                    <mxGeometry width="50" height="50" relative="1" as="geometry">
                        <mxPoint x="540" y="141" as="sourcePoint"/>
                        <mxPoint x="590" y="91" as="targetPoint"/>
                    </mxGeometry>
                </mxCell>
                <mxCell id="131" value="parent" style="rounded=1;whiteSpace=wrap;html=1;fillColor=#CDEB8B;fontColor=#000000;" vertex="1" parent="1">
                    <mxGeometry x="704" y="545" width="41" height="27" as="geometry"/>
                </mxCell>
                <mxCell id="132" value="left" style="rounded=1;whiteSpace=wrap;html=1;fillColor=#CDEB8B;gradientColor=none;fontColor=#000000;" vertex="1" parent="1">
                    <mxGeometry x="746" y="545" width="41" height="27" as="geometry"/>
                </mxCell>
                <mxCell id="133" value="right" style="rounded=1;whiteSpace=wrap;html=1;fillColor=#CDEB8B;fontColor=#000000;" vertex="1" parent="1">
                    <mxGeometry x="788" y="545" width="41" height="27" as="geometry"/>
                </mxCell>
                <mxCell id="134" value="prev" style="rounded=1;whiteSpace=wrap;html=1;fillColor=#CDEB8B;fontColor=#000000;" vertex="1" parent="1">
                    <mxGeometry x="830" y="545" width="41" height="27" as="geometry"/>
                </mxCell>
                <mxCell id="135" value="red" style="rounded=1;whiteSpace=wrap;html=1;fillColor=#CDEB8B;fontColor=#000000;" vertex="1" parent="1">
                    <mxGeometry x="872" y="545" width="41" height="27" as="geometry"/>
                </mxCell>
                <mxCell id="136" value="" style="endArrow=none;html=1;fontColor=#000000;entryX=0.5;entryY=1;entryDx=0;entryDy=0;exitX=0.5;exitY=0;exitDx=0;exitDy=0;" edge="1" parent="1" source="108" target="131">
                    <mxGeometry width="50" height="50" relative="1" as="geometry">
                        <mxPoint x="594" y="597" as="sourcePoint"/>
                        <mxPoint x="644" y="547" as="targetPoint"/>
                    </mxGeometry>
                </mxCell>
                <mxCell id="137" value="属性元素" style="text;html=1;strokeColor=none;fillColor=none;align=center;verticalAlign=middle;whiteSpace=wrap;rounded=0;fontColor=#000000;" vertex="1" parent="1">
                    <mxGeometry x="638" y="153" width="60" height="30" as="geometry"/>
                </mxCell>
                <mxCell id="138" value="属性元素" style="text;html=1;strokeColor=none;fillColor=none;align=center;verticalAlign=middle;whiteSpace=wrap;rounded=0;fontColor=#000000;" vertex="1" parent="1">
                    <mxGeometry x="715" y="585" width="60" height="30" as="geometry"/>
                </mxCell>
            </root>
        </mxGraphModel>
    </diagram>
</mxfile>